# xmcd
# 
# Track frame offsets:
#     150
#     26790
#     51887
# 
# Disc length: 968
# 
# Revision: 2
# Processed by: cddbd v1.5.2PL0 Copyright (c) Steve Scherf et al.
# Submitted via: fre:ac v1.0.31
# 
DISCID=2103c603
DTITLE=Various Artist - MISSION 3 - LUPIN THE SINGLE
DYEAR=1999
DGENRE=Unclassifiable
TTITLE0=DJ HASEBE - ルパン三世主題歌II '99
TTITLE1=ORIENTA-RHYTHM - AFRO LUPIN'99
TTITLE2=Takeo Yamashita (ヤマシタ タケオ) and 9981 - ルパン三世主題歌II '99 original mix
EXTD=
EXTT0=
EXTT1=
EXTT2=
PLAYORDER=
